<mxfile host="app.diagrams.net" modified="2021-12-03T14:09:05.354Z" agent="5.0 (Windows NT 10.0; Win64; x64) AppleWebKit/537.36 (KHTML, like Gecko) Chrome/96.0.4664.45 Safari/537.36" etag="e_rN9WqWLlBSZvrUe9kI" version="15.8.8" type="github">
  <diagram id="C5RBs43oDa-KdzZeNtuy" name="Page-1">
    <mxGraphModel dx="1240" dy="1812" grid="1" gridSize="10" guides="1" tooltips="1" connect="1" arrows="1" fold="1" page="1" pageScale="1" pageWidth="827" pageHeight="1169" math="0" shadow="0">
      <root>
        <mxCell id="WIyWlLk6GJQsqaUBKTNV-0" />
        <mxCell id="WIyWlLk6GJQsqaUBKTNV-1" parent="WIyWlLk6GJQsqaUBKTNV-0" />
        <mxCell id="icHk0DNHgdCXzCUY5JYD-108" value="" style="group" vertex="1" connectable="0" parent="WIyWlLk6GJQsqaUBKTNV-1">
          <mxGeometry x="130" y="-160" width="500" height="940" as="geometry" />
        </mxCell>
        <mxCell id="icHk0DNHgdCXzCUY5JYD-9" value="" style="edgeStyle=orthogonalEdgeStyle;rounded=0;orthogonalLoop=1;jettySize=auto;html=1;endArrow=classic;endFill=1;entryX=0.5;entryY=0;entryDx=0;entryDy=0;fontSize=13;" edge="1" parent="icHk0DNHgdCXzCUY5JYD-108" target="icHk0DNHgdCXzCUY5JYD-10">
          <mxGeometry relative="1" as="geometry">
            <mxPoint x="90" y="490" as="sourcePoint" />
            <mxPoint x="90" y="615" as="targetPoint" />
          </mxGeometry>
        </mxCell>
        <mxCell id="WIyWlLk6GJQsqaUBKTNV-7" value="Thông báo &quot;Sai access token&quot; và ngắt kết nối" style="rounded=1;whiteSpace=wrap;html=1;fontSize=13;glass=0;strokeWidth=1;shadow=0;" parent="icHk0DNHgdCXzCUY5JYD-108" vertex="1">
          <mxGeometry x="250" y="470" width="150" height="55" as="geometry" />
        </mxCell>
        <mxCell id="icHk0DNHgdCXzCUY5JYD-112" value="" style="edgeStyle=orthogonalEdgeStyle;rounded=0;orthogonalLoop=1;jettySize=auto;html=1;fontSize=13;endArrow=classic;endFill=1;" edge="1" parent="icHk0DNHgdCXzCUY5JYD-108" source="icHk0DNHgdCXzCUY5JYD-0" target="icHk0DNHgdCXzCUY5JYD-111">
          <mxGeometry relative="1" as="geometry" />
        </mxCell>
        <mxCell id="icHk0DNHgdCXzCUY5JYD-0" value="Bắt đầu" style="ellipse;whiteSpace=wrap;html=1;rounded=1;shadow=0;strokeWidth=1;glass=0;fontSize=13;" vertex="1" parent="icHk0DNHgdCXzCUY5JYD-108">
          <mxGeometry x="30" y="10" width="120" height="60" as="geometry" />
        </mxCell>
        <mxCell id="icHk0DNHgdCXzCUY5JYD-110" style="edgeStyle=orthogonalEdgeStyle;rounded=0;orthogonalLoop=1;jettySize=auto;html=1;fontSize=13;endArrow=classic;endFill=1;" edge="1" parent="icHk0DNHgdCXzCUY5JYD-108" source="icHk0DNHgdCXzCUY5JYD-10" target="icHk0DNHgdCXzCUY5JYD-22">
          <mxGeometry relative="1" as="geometry" />
        </mxCell>
        <mxCell id="icHk0DNHgdCXzCUY5JYD-10" value="Phân loại sự kiện và gọi hàm xử lý&amp;nbsp;" style="rounded=1;whiteSpace=wrap;html=1;fontSize=13;glass=0;strokeWidth=1;shadow=0;" vertex="1" parent="icHk0DNHgdCXzCUY5JYD-108">
          <mxGeometry x="15" y="540" width="150" height="55" as="geometry" />
        </mxCell>
        <mxCell id="icHk0DNHgdCXzCUY5JYD-11" value="Đúng" style="text;html=1;align=center;verticalAlign=middle;resizable=0;points=[];autosize=1;strokeColor=none;fillColor=none;fontSize=13;" vertex="1" parent="icHk0DNHgdCXzCUY5JYD-108">
          <mxGeometry x="85" y="500" width="50" height="20" as="geometry" />
        </mxCell>
        <mxCell id="icHk0DNHgdCXzCUY5JYD-16" value="" style="edgeStyle=orthogonalEdgeStyle;rounded=0;orthogonalLoop=1;jettySize=auto;html=1;endArrow=classic;endFill=1;fontSize=13;" edge="1" parent="icHk0DNHgdCXzCUY5JYD-108" source="icHk0DNHgdCXzCUY5JYD-14" target="icHk0DNHgdCXzCUY5JYD-10">
          <mxGeometry relative="1" as="geometry" />
        </mxCell>
        <mxCell id="icHk0DNHgdCXzCUY5JYD-14" value="&lt;span style=&quot;font-size: 13px;&quot;&gt;Access Token hợp lệ?&lt;/span&gt;" style="rhombus;whiteSpace=wrap;html=1;rounded=1;shadow=0;strokeWidth=1;glass=0;fontSize=13;" vertex="1" parent="icHk0DNHgdCXzCUY5JYD-108">
          <mxGeometry y="350" width="180" height="130" as="geometry" />
        </mxCell>
        <mxCell id="WIyWlLk6GJQsqaUBKTNV-5" value="Sai" style="edgeStyle=orthogonalEdgeStyle;rounded=0;html=1;jettySize=auto;orthogonalLoop=1;fontSize=13;endArrow=classic;endFill=1;endSize=8;strokeWidth=1;shadow=0;labelBackgroundColor=none;" parent="icHk0DNHgdCXzCUY5JYD-108" source="icHk0DNHgdCXzCUY5JYD-14" target="WIyWlLk6GJQsqaUBKTNV-7" edge="1">
          <mxGeometry y="10" relative="1" as="geometry">
            <mxPoint as="offset" />
            <mxPoint x="180" y="415" as="sourcePoint" />
            <Array as="points">
              <mxPoint x="325" y="415" />
            </Array>
          </mxGeometry>
        </mxCell>
        <mxCell id="icHk0DNHgdCXzCUY5JYD-22" value="Kiểm tra toàn vẹn dữ &lt;br style=&quot;font-size: 13px;&quot;&gt;liệu và cấu trúc dữ liệu" style="rhombus;whiteSpace=wrap;html=1;rounded=1;shadow=0;strokeWidth=1;glass=0;fontSize=13;" vertex="1" parent="icHk0DNHgdCXzCUY5JYD-108">
          <mxGeometry x="6.25" y="640" width="167.5" height="110" as="geometry" />
        </mxCell>
        <mxCell id="icHk0DNHgdCXzCUY5JYD-24" value="Xử lý các sự kiện theo yêu cầu" style="whiteSpace=wrap;html=1;rounded=1;shadow=0;strokeWidth=1;glass=0;fontSize=13;" vertex="1" parent="icHk0DNHgdCXzCUY5JYD-108">
          <mxGeometry x="30" y="790" width="120" height="60" as="geometry" />
        </mxCell>
        <mxCell id="icHk0DNHgdCXzCUY5JYD-25" value="" style="edgeStyle=orthogonalEdgeStyle;rounded=0;orthogonalLoop=1;jettySize=auto;html=1;endArrow=classic;endFill=1;fontSize=13;" edge="1" parent="icHk0DNHgdCXzCUY5JYD-108" source="icHk0DNHgdCXzCUY5JYD-22" target="icHk0DNHgdCXzCUY5JYD-24">
          <mxGeometry relative="1" as="geometry" />
        </mxCell>
        <mxCell id="icHk0DNHgdCXzCUY5JYD-26" value="Thông báo lỗi và ngắt kết nối" style="whiteSpace=wrap;html=1;rounded=1;shadow=0;strokeWidth=1;glass=0;fontSize=13;" vertex="1" parent="icHk0DNHgdCXzCUY5JYD-108">
          <mxGeometry x="265" y="665" width="120" height="60" as="geometry" />
        </mxCell>
        <mxCell id="icHk0DNHgdCXzCUY5JYD-27" value="" style="edgeStyle=orthogonalEdgeStyle;rounded=0;orthogonalLoop=1;jettySize=auto;html=1;endArrow=classic;endFill=1;fontSize=13;" edge="1" parent="icHk0DNHgdCXzCUY5JYD-108" source="icHk0DNHgdCXzCUY5JYD-22" target="icHk0DNHgdCXzCUY5JYD-26">
          <mxGeometry relative="1" as="geometry" />
        </mxCell>
        <mxCell id="icHk0DNHgdCXzCUY5JYD-28" value="Sai" style="edgeLabel;html=1;align=center;verticalAlign=middle;resizable=0;points=[];fontSize=13;" vertex="1" connectable="0" parent="icHk0DNHgdCXzCUY5JYD-27">
          <mxGeometry x="-0.1586" y="-1" relative="1" as="geometry">
            <mxPoint y="-16" as="offset" />
          </mxGeometry>
        </mxCell>
        <mxCell id="icHk0DNHgdCXzCUY5JYD-29" value="Đúng" style="text;html=1;align=center;verticalAlign=middle;resizable=0;points=[];autosize=1;strokeColor=none;fillColor=none;fontSize=13;" vertex="1" parent="icHk0DNHgdCXzCUY5JYD-108">
          <mxGeometry x="85" y="750" width="50" height="20" as="geometry" />
        </mxCell>
        <mxCell id="icHk0DNHgdCXzCUY5JYD-35" value="Kết thúc" style="ellipse;whiteSpace=wrap;html=1;rounded=1;shadow=0;strokeWidth=1;glass=0;fontSize=13;" vertex="1" parent="icHk0DNHgdCXzCUY5JYD-108">
          <mxGeometry x="380" y="790" width="120" height="60" as="geometry" />
        </mxCell>
        <mxCell id="icHk0DNHgdCXzCUY5JYD-106" style="edgeStyle=orthogonalEdgeStyle;rounded=0;orthogonalLoop=1;jettySize=auto;html=1;entryX=0.5;entryY=0;entryDx=0;entryDy=0;fontSize=13;endArrow=classic;endFill=1;" edge="1" parent="icHk0DNHgdCXzCUY5JYD-108" source="WIyWlLk6GJQsqaUBKTNV-7" target="icHk0DNHgdCXzCUY5JYD-35">
          <mxGeometry relative="1" as="geometry">
            <Array as="points">
              <mxPoint x="440" y="498" />
            </Array>
          </mxGeometry>
        </mxCell>
        <mxCell id="icHk0DNHgdCXzCUY5JYD-107" style="edgeStyle=orthogonalEdgeStyle;rounded=0;orthogonalLoop=1;jettySize=auto;html=1;exitX=0.5;exitY=1;exitDx=0;exitDy=0;entryX=0;entryY=0;entryDx=0;entryDy=0;fontSize=13;endArrow=classic;endFill=1;" edge="1" parent="icHk0DNHgdCXzCUY5JYD-108" source="icHk0DNHgdCXzCUY5JYD-26" target="icHk0DNHgdCXzCUY5JYD-35">
          <mxGeometry relative="1" as="geometry" />
        </mxCell>
        <mxCell id="icHk0DNHgdCXzCUY5JYD-105" value="" style="edgeStyle=orthogonalEdgeStyle;rounded=0;orthogonalLoop=1;jettySize=auto;html=1;fontSize=13;endArrow=classic;endFill=1;" edge="1" parent="icHk0DNHgdCXzCUY5JYD-108" source="icHk0DNHgdCXzCUY5JYD-37" target="icHk0DNHgdCXzCUY5JYD-35">
          <mxGeometry relative="1" as="geometry" />
        </mxCell>
        <mxCell id="icHk0DNHgdCXzCUY5JYD-37" value="Trả về kết quả" style="whiteSpace=wrap;html=1;rounded=1;shadow=0;strokeWidth=1;glass=0;fontSize=13;" vertex="1" parent="icHk0DNHgdCXzCUY5JYD-108">
          <mxGeometry x="190" y="790" width="120" height="60" as="geometry" />
        </mxCell>
        <mxCell id="icHk0DNHgdCXzCUY5JYD-38" value="" style="edgeStyle=orthogonalEdgeStyle;rounded=0;orthogonalLoop=1;jettySize=auto;html=1;endArrow=classic;endFill=1;fontSize=13;" edge="1" parent="icHk0DNHgdCXzCUY5JYD-108" source="icHk0DNHgdCXzCUY5JYD-24" target="icHk0DNHgdCXzCUY5JYD-37">
          <mxGeometry relative="1" as="geometry" />
        </mxCell>
        <mxCell id="icHk0DNHgdCXzCUY5JYD-99" value="Gửi thông tin đến FireBase Server xác thực Access Token" style="rounded=0;whiteSpace=wrap;html=1;fontSize=13;" vertex="1" parent="icHk0DNHgdCXzCUY5JYD-108">
          <mxGeometry x="30" y="180" width="120" height="60" as="geometry" />
        </mxCell>
        <mxCell id="icHk0DNHgdCXzCUY5JYD-104" value="" style="edgeStyle=orthogonalEdgeStyle;rounded=0;orthogonalLoop=1;jettySize=auto;html=1;endArrow=classic;endFill=1;fontSize=13;" edge="1" parent="icHk0DNHgdCXzCUY5JYD-108" source="icHk0DNHgdCXzCUY5JYD-102" target="icHk0DNHgdCXzCUY5JYD-14">
          <mxGeometry relative="1" as="geometry" />
        </mxCell>
        <mxCell id="icHk0DNHgdCXzCUY5JYD-102" value="Nhận phản hồi" style="rounded=0;whiteSpace=wrap;html=1;fontSize=13;" vertex="1" parent="icHk0DNHgdCXzCUY5JYD-108">
          <mxGeometry x="30" y="270" width="120" height="60" as="geometry" />
        </mxCell>
        <mxCell id="icHk0DNHgdCXzCUY5JYD-103" value="" style="edgeStyle=orthogonalEdgeStyle;rounded=0;orthogonalLoop=1;jettySize=auto;html=1;endArrow=classic;endFill=1;fontSize=13;" edge="1" parent="icHk0DNHgdCXzCUY5JYD-108" source="icHk0DNHgdCXzCUY5JYD-99" target="icHk0DNHgdCXzCUY5JYD-102">
          <mxGeometry relative="1" as="geometry" />
        </mxCell>
        <mxCell id="icHk0DNHgdCXzCUY5JYD-113" value="" style="edgeStyle=orthogonalEdgeStyle;rounded=0;orthogonalLoop=1;jettySize=auto;html=1;fontSize=13;endArrow=classic;endFill=1;" edge="1" parent="icHk0DNHgdCXzCUY5JYD-108" source="icHk0DNHgdCXzCUY5JYD-111" target="icHk0DNHgdCXzCUY5JYD-99">
          <mxGeometry relative="1" as="geometry" />
        </mxCell>
        <mxCell id="icHk0DNHgdCXzCUY5JYD-111" value="Nhận request từ người dùng và giải mã" style="rounded=0;whiteSpace=wrap;html=1;fontSize=13;" vertex="1" parent="icHk0DNHgdCXzCUY5JYD-108">
          <mxGeometry x="30" y="100" width="120" height="60" as="geometry" />
        </mxCell>
      </root>
    </mxGraphModel>
  </diagram>
</mxfile>
